<?xml version="1.0" standalone="no"?>
<!DOCTYPE svg PUBLIC "-//W3C//DTD SVG 20010904//EN"
 "http://www.w3.org/TR/2001/REC-SVG-20010904/DTD/svg10.dtd">
<svg version="1.0" xmlns="http://www.w3.org/2000/svg"
 width="115.000000pt" height="99.000000pt" viewBox="0 0 115.000000 99.000000"
 preserveAspectRatio="xMidYMid meet">

<g transform="translate(0.000000,99.000000) scale(0.100000,-0.100000)"
fill="#000000" stroke="none">
<path d="M62 965 c-28 -24 -62 -80 -62 -104 0 -26 28 -8 45 28 10 22 28 50 41
62 23 21 24 21 24 3 -1 -10 -7 -48 -15 -84 -19 -85 -19 -278 0 -355 8 -33 14
-63 15 -66 0 -3 -16 -26 -35 -50 -45 -57 -46 -84 -2 -41 18 18 38 32 45 32 6
0 29 -24 50 -52 85 -114 126 -120 52 -9 -28 41 -50 81 -50 88 0 7 31 54 70
105 86 113 121 196 128 301 l5 77 -26 0 c-33 0 -128 -78 -182 -149 -21 -28
-40 -51 -41 -51 -2 0 -1 15 1 33 24 186 26 229 15 243 -18 21 -45 17 -78 -11z
m261 -147 c-19 -103 -105 -274 -158 -318 -21 -17 -23 -13 -31 52 -6 50 -3 64
23 120 32 68 128 178 156 178 13 0 15 -6 10 -32z"/>
<path d="M1055 713 c-3 -27 -19 -77 -35 -113 -75 -173 -78 -185 -57 -214 11
-15 13 -14 15 11 1 15 22 74 47 129 46 104 67 180 58 215 -9 33 -20 21 -28
-28z"/>
<path d="M484 726 c-34 -24 -105 -122 -115 -160 -7 -25 -16 -36 -29 -36 -23 0
-44 -30 -61 -89 -8 -27 -20 -46 -31 -49 -10 -2 -18 -9 -18 -14 0 -5 9 -6 20
-3 18 6 20 2 20 -32 0 -30 7 -46 28 -66 15 -15 33 -27 40 -27 17 0 81 59 98
91 25 49 15 45 -41 -16 -53 -58 -55 -59 -70 -41 -21 28 -19 131 4 181 l18 40
7 -42 c4 -24 11 -43 15 -43 5 0 11 28 14 61 8 96 104 260 142 245 21 -8 29
-91 17 -189 -15 -122 -89 -287 -129 -287 -20 0 -93 -39 -93 -50 0 -18 20 -20
43 -5 61 40 347 67 347 33 0 -7 -23 -29 -52 -48 -28 -19 -64 -55 -80 -79 -28
-45 -37 -91 -18 -91 6 0 10 6 10 13 0 25 59 96 102 124 52 34 58 41 58 74 0
33 -18 48 -64 56 -19 3 -38 13 -42 22 -19 48 -27 101 -33 242 -5 135 -9 160
-25 178 -22 24 -53 27 -82 7z m83 -448 c-13 -9 -87 -11 -87 -3 0 3 17 38 37
78 l36 72 13 -70 c11 -54 11 -71 1 -77z"/>
<path d="M916 544 c-27 -27 -56 -107 -56 -153 0 -77 45 -141 97 -141 34 0 77
27 97 61 9 16 22 34 29 41 7 7 26 31 42 52 l30 39 -30 -16 c-27 -14 -44 -31
-126 -130 -24 -29 -29 -30 -53 -19 -47 21 -58 88 -30 182 9 29 29 66 44 82 28
28 28 28 6 28 -13 0 -35 -12 -50 -26z"/>
<path d="M663 505 c-39 -17 -53 -30 -53 -45 0 -21 14 -27 25 -10 8 13 85 53
91 47 3 -2 -14 -35 -36 -73 -44 -75 -49 -117 -15 -122 13 -1 28 9 43 30 12 18
36 49 53 68 l31 35 -7 -30 c-23 -104 6 -244 60 -295 l23 -21 -24 48 c-36 73
-42 178 -15 280 34 131 31 132 -63 23 -38 -44 -72 -78 -74 -75 -2 2 12 34 33
70 29 53 34 69 25 81 -17 20 -37 18 -97 -11z"/>
<path d="M465 428 c-11 -7 -45 -22 -75 -35 -64 -26 -37 -31 39 -6 29 9 57 25
62 35 11 21 3 23 -26 6z"/>
</g>
</svg>
